<?xml version="1.0" encoding="UTF-8" standalone="no"?>
<svg xmlns:rdf="http://www.w3.org/1999/02/22-rdf-syntax-ns#" xmlns="http://www.w3.org/2000/svg" height="40" width="40" version="1.1" xmlns:cc="http://creativecommons.org/ns#" xmlns:dc="http://purl.org/dc/elements/1.1/" viewBox="0 0 1000 1000">
 <g transform="translate(0 -52.362)">
  <path stroke-linejoin="round" d="m20 932.36v-695h960v695z" fill-rule="evenodd" stroke="#1E417B" stroke-width="40" fill="#fff"/>
  <path d="m280 322.36v-170" stroke="#1E417B" stroke-linecap="round" stroke-width="80" fill="none"/>
  <path d="m720 322.36v-170" stroke="#1E417B" stroke-linecap="round" stroke-width="80" fill="none"/>
  <g fill-rule="evenodd" fill="#1E417B">
   <path d="m80 872.36v-136h136v136z"/>
   <path d="m256 872.36v-136h136v136z"/>
   <path d="m432 872.36v-136h136v136z"/>
   <path d="m608 872.36v-136h136v136z"/>
   <path d="m784 872.36v-136h136v136z"/>
   <path d="m80 696.36v-136h136v136z"/>
   <path d="m256 696.36v-136h136v136z"/>
   <path d="m432 696.36v-136h136v136z"/>
   <path d="m608 696.36v-136h136v136z"/>
   <path d="m784 696.36v-136h136v136z"/>
   <path d="m80 520.36v-136h136v136z"/>
   <path d="m256 520.36v-136h136v136z"/>
   <path d="m432 520.36v-136h136v136z"/>
   <path d="m608 520.36v-136h136v136z"/>
   <path d="m784 520.36v-136h136v136z"/>
  </g>
 </g>
</svg>
