<?xml version="1.0" encoding="UTF-8" standalone="no"?>
<!-- Created with Inkscape (http://www.inkscape.org/) -->

<svg
   xmlns:dc="http://purl.org/dc/elements/1.1/"
   xmlns:cc="http://creativecommons.org/ns#"
   xmlns:rdf="http://www.w3.org/1999/02/22-rdf-syntax-ns#"
   xmlns:svg="http://www.w3.org/2000/svg"
   xmlns="http://www.w3.org/2000/svg"
   xmlns:sodipodi="http://sodipodi.sourceforge.net/DTD/sodipodi-0.dtd"
   xmlns:inkscape="http://www.inkscape.org/namespaces/inkscape"
   width="1000"
   height="1000"
   viewBox="0 0 1000 1000"
   id="svg4168"
   version="1.1"
   inkscape:version="0.91 r13725"
   sodipodi:docname="gradebook_v2.svg">
  <defs
     id="defs4170" />
  <sodipodi:namedview
     id="base"
     pagecolor="#ffffff"
     bordercolor="#666666"
     borderopacity="1.0"
     inkscape:pageopacity="0.0"
     inkscape:pageshadow="2"
     inkscape:zoom="0.49497474"
     inkscape:cx="643.84464"
     inkscape:cy="525.55628"
     inkscape:document-units="px"
     inkscape:current-layer="layer1"
     showgrid="false"
     units="px"
     showborder="true"
     inkscape:window-width="1366"
     inkscape:window-height="720"
     inkscape:window-x="0"
     inkscape:window-y="0"
     inkscape:window-maximized="1" />
  <metadata
     id="metadata4173">
    <rdf:RDF>
      <cc:Work
         rdf:about="">
        <dc:format>image/svg+xml</dc:format>
        <dc:type
           rdf:resource="http://purl.org/dc/dcmitype/StillImage" />
        <dc:title></dc:title>
      </cc:Work>
    </rdf:RDF>
  </metadata>
  <g
     inkscape:label="Layer 1"
     inkscape:groupmode="layer"
     id="layer1"
     transform="translate(0,-52.362161)">
    <path
       style="fill:#ffffff;fill-opacity:1;fill-rule:evenodd;stroke:#000000;stroke-width:40.60277939;stroke-linecap:round;stroke-linejoin:round;stroke-miterlimit:4;stroke-dasharray:none;stroke-opacity:1"
       d="m 116.46246,170.40782 53.95228,-47.74429 809.28448,-2e-5 0,811.65291 -53.95231,0"
       id="path4728"
       inkscape:connector-curvature="0"
       sodipodi:nodetypes="ccccc" />
    <path
       style="fill:#ffffff;fill-opacity:1;fill-rule:evenodd;stroke:#000000;stroke-width:40.60277939;stroke-linecap:round;stroke-linejoin:round;stroke-miterlimit:4;stroke-dasharray:none;stroke-opacity:1"
       d="m 116.46246,982.06078 0,-811.65294 809.28445,0 0,811.65294 z"
       id="path4722"
       inkscape:connector-curvature="0"
       sodipodi:nodetypes="ccccc" />
    <text
       xml:space="preserve"
       style="font-style:normal;font-variant:normal;font-weight:bold;font-stretch:normal;font-size:475.99975586px;line-height:125%;font-family:sans-serif;-inkscape-font-specification:'sans-serif Bold';letter-spacing:0px;word-spacing:0px;fill:#000000;fill-opacity:1;stroke:none;stroke-width:1px;stroke-linecap:butt;stroke-linejoin:miter;stroke-opacity:1"
       x="234.55467"
       y="747.0127"
       id="text4746"
       sodipodi:linespacing="125%"
       transform="scale(1.038286,0.96312578)"><tspan
         sodipodi:role="line"
         id="tspan4748"
         x="234.55467"
         y="747.0127">A<tspan
   style="font-style:normal;font-variant:normal;font-weight:bold;font-stretch:normal;font-size:237.99987793px;font-family:sans-serif;-inkscape-font-specification:'sans-serif Bold'"
   id="tspan4795" /></tspan></text>
    <path
       style="fill:none;fill-rule:evenodd;stroke:#000000;stroke-width:47.672;stroke-linecap:butt;stroke-linejoin:miter;stroke-miterlimit:4;stroke-dasharray:none;stroke-opacity:1"
       d="m 736.91386,433.0014 0,238.72144"
       id="path4801"
       inkscape:connector-curvature="0"
       sodipodi:nodetypes="cc" />
    <path
       sodipodi:nodetypes="cc"
       inkscape:connector-curvature="0"
       id="path4803"
       d="m 619.033,552.36212 238,0"
       style="fill:none;fill-rule:evenodd;stroke:#000000;stroke-width:47.672;stroke-linecap:butt;stroke-linejoin:miter;stroke-miterlimit:4;stroke-dasharray:none;stroke-opacity:1" />
    <g
       id="g4270"
       transform="matrix(1.0790459,0,0,0.95488575,-18.418266,24.919363)">
      <path
         style="fill:none;fill-opacity:1;fill-rule:evenodd;stroke:#000000;stroke-width:60;stroke-linecap:butt;stroke-linejoin:round;stroke-miterlimit:4;stroke-dasharray:none;stroke-opacity:1"
         id="path5463"
         sodipodi:type="arc"
         sodipodi:cx="126.97654"
         sodipodi:cy="882.02057"
         sodipodi:rx="79.97567"
         sodipodi:ry="25.182961"
         sodipodi:start="0"
         sodipodi:end="4.712389"
         d="M 206.95221,882.02057 A 79.97567,25.182961 0 0 1 157.5819,905.28659 79.97567,25.182961 0 0 1 70.425201,899.82761 79.97567,25.182961 0 0 1 53.088656,872.38347 79.97567,25.182961 0 0 1 126.97654,856.83761"
         sodipodi:open="true" />
      <path
         sodipodi:open="true"
         d="m 206.95221,882.02057 a 79.97567,25.182961 0 0 1 -48.29893,23.1234 79.97567,25.182961 0 0 1 -86.559375,-4.80598 79.97567,25.182961 0 0 1 -20.269912,-26.9305"
         sodipodi:end="3.4906585"
         sodipodi:start="0"
         sodipodi:ry="25.182961"
         sodipodi:rx="79.97567"
         sodipodi:cy="882.02057"
         sodipodi:cx="126.97654"
         sodipodi:type="arc"
         id="path5465"
         style="fill:none;fill-opacity:1;fill-rule:evenodd;stroke:#000000;stroke-width:60;stroke-linecap:round;stroke-linejoin:round;stroke-miterlimit:4;stroke-dasharray:none;stroke-opacity:1" />
    </g>
    <g
       id="g4264"
       transform="matrix(1.0790459,0,0,0.95488575,-18.418266,24.919363)">
      <path
         sodipodi:open="true"
         d="M 206.95221,732.02057 A 79.97567,25.182961 0 0 1 157.5819,755.28659 79.97567,25.182961 0 0 1 70.425201,749.82761 79.97567,25.182961 0 0 1 53.088656,722.38347 79.97567,25.182961 0 0 1 126.97654,706.83761"
         sodipodi:end="4.712389"
         sodipodi:start="0"
         sodipodi:ry="25.182961"
         sodipodi:rx="79.97567"
         sodipodi:cy="732.02057"
         sodipodi:cx="126.97654"
         sodipodi:type="arc"
         id="path5469"
         style="fill:none;fill-opacity:1;fill-rule:evenodd;stroke:#000000;stroke-width:60;stroke-linecap:butt;stroke-linejoin:round;stroke-miterlimit:4;stroke-dasharray:none;stroke-opacity:1" />
      <path
         style="fill:none;fill-opacity:1;fill-rule:evenodd;stroke:#000000;stroke-width:60;stroke-linecap:round;stroke-linejoin:round;stroke-miterlimit:4;stroke-dasharray:none;stroke-opacity:1"
         id="path5471"
         sodipodi:type="arc"
         sodipodi:cx="126.97654"
         sodipodi:cy="732.02057"
         sodipodi:rx="79.97567"
         sodipodi:ry="25.182961"
         sodipodi:start="0"
         sodipodi:end="3.4906585"
         d="m 206.95221,732.02057 a 79.97567,25.182961 0 0 1 -48.29893,23.1234 79.97567,25.182961 0 0 1 -86.559375,-4.80598 79.97567,25.182961 0 0 1 -20.269912,-26.9305"
         sodipodi:open="true" />
    </g>
    <g
       id="g4258"
       transform="matrix(1.0790459,0,0,0.95488575,-18.418266,24.919363)">
      <path
         style="fill:none;fill-opacity:1;fill-rule:evenodd;stroke:#000000;stroke-width:60;stroke-linecap:butt;stroke-linejoin:round;stroke-miterlimit:4;stroke-dasharray:none;stroke-opacity:1"
         id="path5475"
         sodipodi:type="arc"
         sodipodi:cx="126.97654"
         sodipodi:cy="582.02057"
         sodipodi:rx="79.97567"
         sodipodi:ry="25.182961"
         sodipodi:start="0"
         sodipodi:end="4.712389"
         d="M 206.95221,582.02057 A 79.97567,25.182961 0 0 1 157.5819,605.28659 79.97567,25.182961 0 0 1 70.425201,599.82761 79.97567,25.182961 0 0 1 53.088656,572.38347 79.97567,25.182961 0 0 1 126.97654,556.83761"
         sodipodi:open="true" />
      <path
         sodipodi:open="true"
         d="m 206.95221,582.02057 a 79.97567,25.182961 0 0 1 -48.29893,23.1234 79.97567,25.182961 0 0 1 -86.559375,-4.80598 79.97567,25.182961 0 0 1 -20.269912,-26.9305"
         sodipodi:end="3.4906585"
         sodipodi:start="0"
         sodipodi:ry="25.182961"
         sodipodi:rx="79.97567"
         sodipodi:cy="582.02057"
         sodipodi:cx="126.97654"
         sodipodi:type="arc"
         id="path5477"
         style="fill:none;fill-opacity:1;fill-rule:evenodd;stroke:#000000;stroke-width:60;stroke-linecap:round;stroke-linejoin:round;stroke-miterlimit:4;stroke-dasharray:none;stroke-opacity:1" />
    </g>
    <g
       id="g4252"
       transform="matrix(1.0790459,0,0,0.95488575,-18.418266,24.919363)">
      <path
         sodipodi:open="true"
         d="M 206.95221,432.02054 A 79.97567,25.182961 0 0 1 157.5819,455.28656 79.97567,25.182961 0 0 1 70.425201,449.82758 79.97567,25.182961 0 0 1 53.088656,422.38344 79.97567,25.182961 0 0 1 126.97654,406.83758"
         sodipodi:end="4.712389"
         sodipodi:start="0"
         sodipodi:ry="25.182961"
         sodipodi:rx="79.97567"
         sodipodi:cy="432.02054"
         sodipodi:cx="126.97654"
         sodipodi:type="arc"
         id="path5481"
         style="fill:none;fill-opacity:1;fill-rule:evenodd;stroke:#000000;stroke-width:60;stroke-linecap:butt;stroke-linejoin:round;stroke-miterlimit:4;stroke-dasharray:none;stroke-opacity:1" />
      <path
         style="fill:none;fill-opacity:1;fill-rule:evenodd;stroke:#000000;stroke-width:60;stroke-linecap:round;stroke-linejoin:round;stroke-miterlimit:4;stroke-dasharray:none;stroke-opacity:1"
         id="path5483"
         sodipodi:type="arc"
         sodipodi:cx="126.97654"
         sodipodi:cy="432.02054"
         sodipodi:rx="79.97567"
         sodipodi:ry="25.182961"
         sodipodi:start="0"
         sodipodi:end="3.4906585"
         d="m 206.95221,432.02054 a 79.97567,25.182961 0 0 1 -48.29893,23.1234 79.97567,25.182961 0 0 1 -86.559375,-4.80598 79.97567,25.182961 0 0 1 -20.269912,-26.9305"
         sodipodi:open="true" />
    </g>
    <g
       id="g4366"
       transform="matrix(1.0790459,0,0,0.95488575,-18.418266,24.919363)">
      <g
         id="g4247">
        <path
           sodipodi:open="true"
           d="M 206.95221,282.02057 A 79.97567,25.182961 0 0 1 157.5819,305.28659 79.97567,25.182961 0 0 1 70.425201,299.82761 79.97567,25.182961 0 0 1 53.088656,272.38347 79.97567,25.182961 0 0 1 126.97654,256.83761"
           sodipodi:end="4.712389"
           sodipodi:start="0"
           sodipodi:ry="25.182961"
           sodipodi:rx="79.97567"
           sodipodi:cy="282.02057"
           sodipodi:cx="126.97654"
           sodipodi:type="arc"
           id="path5487"
           style="fill:none;fill-opacity:1;fill-rule:evenodd;stroke:#000000;stroke-width:60;stroke-linecap:butt;stroke-linejoin:round;stroke-miterlimit:4;stroke-dasharray:none;stroke-opacity:1" />
      </g>
      <path
         sodipodi:open="true"
         d="m 206.95221,282.02057 a 79.97567,25.182961 0 0 1 -48.29893,23.1234 79.97567,25.182961 0 0 1 -86.559375,-4.80598 79.97567,25.182961 0 0 1 -20.269912,-26.9305"
         sodipodi:end="3.4906585"
         sodipodi:start="0"
         sodipodi:ry="25.182961"
         sodipodi:rx="79.97567"
         sodipodi:cy="282.02057"
         sodipodi:cx="126.97654"
         sodipodi:type="arc"
         id="path5489"
         style="fill:none;fill-opacity:1;fill-rule:evenodd;stroke:#000000;stroke-width:60;stroke-linecap:round;stroke-linejoin:round;stroke-miterlimit:4;stroke-dasharray:none;stroke-opacity:1" />
    </g>
  </g>
</svg>
